<?xml version="1.0" encoding="UTF-8"?>
<svg width="192" height="192" viewBox="0 0 192 192" xmlns="http://www.w3.org/2000/svg">
  <circle cx="96" cy="96" r="85" fill="#7C3AED" stroke="#FFFFFF" stroke-width="6"/>
  <circle cx="96" cy="96" r="45" fill="#EF4444"/>
  <!-- Music note -->
  <circle cx="96" cy="105" r="4" fill="#7C3AED"/>
  <path d="M96 105 Q102 85 110 90 Q108 92 102 95 L100 105 Z" fill="#7C3AED"/>
  <!-- Sound waves -->
  <rect x="75" y="85" width="3" height="15" rx="1.5" fill="#FFFFFF"/>
  <rect x="80" y="80" width="3" height="25" rx="1.5" fill="#FFFFFF"/>
  <rect x="85" y="88" width="3" height="12" rx="1.5" fill="#FFFFFF"/>
  <rect x="110" y="85" width="3" height="15" rx="1.5" fill="#FFFFFF"/>
  <rect x="115" y="80" width="3" height="25" rx="1.5" fill="#FFFFFF"/>
  <rect x="120" y="88" width="3" height="12" rx="1.5" fill="#FFFFFF"/>
  <!-- Purple sound waves -->
  <rect x="70" y="90" width="2" height="8" rx="1" fill="#7C3AED"/>
  <rect x="125" y="90" width="2" height="8" rx="1" fill="#7C3AED"/>
  <!-- Text -->
  <text x="96" y="145" font-family="Arial, sans-serif" font-size="12" font-weight="bold" text-anchor="middle" fill="#7C3AED">WAITU</text>
  <text x="96" y="160" font-family="Arial, sans-serif" font-size="10" font-weight="bold" text-anchor="middle" fill="#7C3AED">MUSIC</text>
</svg>
